<?xml version="1.0" encoding="UTF-8" standalone="no"?>
<!-- Created with Inkscape (http://www.inkscape.org/) -->

<svg
   version="1.1"
   id="svg2"
   width="225"
   height="225"
   viewBox="0 0 225 225"
   sodipodi:docname="scate.svg"
   inkscape:version="1.1 (c4e8f9ed74, 2021-05-24)"
   xmlns:inkscape="http://www.inkscape.org/namespaces/inkscape"
   xmlns:sodipodi="http://sodipodi.sourceforge.net/DTD/sodipodi-0.dtd"
   xmlns="http://www.w3.org/2000/svg"
   xmlns:svg="http://www.w3.org/2000/svg">
  <defs
     id="defs6" />
  <sodipodi:namedview
     id="namedview4"
     pagecolor="#4a4940"
     bordercolor="#666666"
     borderopacity="1.0"
     inkscape:pageshadow="2"
     inkscape:pageopacity="0"
     inkscape:pagecheckerboard="0"
     showgrid="false"
     inkscape:zoom="1.8155556"
     inkscape:cx="110.43451"
     inkscape:cy="110.98531"
     inkscape:window-width="1900"
     inkscape:window-height="998"
     inkscape:window-x="10"
     inkscape:window-y="44"
     inkscape:window-maximized="1"
     inkscape:current-layer="g8" />
  <g
     inkscape:groupmode="layer"
     inkscape:label="Image"
     id="g8">
    <path
       style="fill:#ffffff;fill-opacity:1"
       d="m 21.49517,216.14197 c -8.148108,-1.99246 -14.5430074,-7.17434 -18.5874574,-15.06169 -3.57086902,-6.96379 -3.32535005,-17.72639 0.566282,-24.82355 5.210249,-9.50192 13.2187634,-14.18255 24.2390564,-14.16668 12.074418,0.0174 22.035307,6.89576 25.950761,17.91997 2.048992,5.76907 4.669816,7.07545 3.651748,1.82026 -1.725795,-8.90842 -6.717749,-17.66309 -12.652856,-22.19001 -6.695954,-5.10726 -12.349765,-6.80995 -24.37454,-7.3406 C 7.6568796,151.74226 5.8504006,150.88819 7.8801306,146.43342 l 1.179005,-2.58763 12.7180164,0.40065 c 11.765111,0.37063 13.225552,0.63855 19.491847,3.57586 12.2726,5.75273 20.012644,15.59378 23.672797,30.09868 l 1.680403,6.6593 40.596891,0.26114 40.5969,0.26114 19.38798,-24.47245 19.38798,-24.47245 -6.73987,-55.288686 C 176.14515,50.460193 172.8333,23.667782 172.49242,21.330282 l -0.6198,-4.25 h -5.00446 c -2.75246,0 -5.87489,-0.465833 -6.93873,-1.035184 -2.51698,-1.347047 -2.51698,-5.582586 0,-6.9296326 1.06901,-0.572119 8.19428,-1.035184 15.92857,-1.035184 11.38877,0 14.2869,0.292578 15.56575,1.571428 3.49227,3.4922716 1.2195,6.5637996 -5.32199,7.1923526 -4.03924,0.38812 -5.10659,0.861569 -5.10659,2.265158 0,3.548099 17.00615,141.17197 17.55415,142.05866 0.31014,0.50182 1.67679,0.9124 3.037,0.9124 6.97033,0 16.16325,6.76331 20.1059,14.79209 6.74957,13.74475 1.43822,29.98956 -12.0773,36.93854 -10.30534,5.29847 -23.82579,3.10642 -31.85915,-5.16527 -5.06723,-5.21756 -7.09993,-10.01026 -7.57819,-17.86785 -0.70368,-11.56132 4.68956,-21.06525 14.88614,-26.23225 l 4.69547,-2.37937 -0.52444,-4.79294 c -1.08676,-9.93205 -0.53586,-10.31838 -19.31699,13.54655 l -17.42259,22.13867 -48.62004,0.0109 -48.620038,0.0109 -1.326925,4.73931 c -1.953604,6.97759 -10.616403,15.54575 -17.864498,17.66934 -5.739454,1.68158 -9.646162,1.8567 -14.568499,0.65304 z m 16.631415,-10.95654 c 4.060648,-2.7908 6.539544,-5.94597 7.416416,-9.4397 l 0.651495,-2.59576 -10.849663,-0.28485 -10.849663,-0.28484 -0.330076,-2.89149 c -0.187479,-1.64233 0.244534,-3.25577 1,-3.73469 0.731542,-0.46376 5.717576,-0.85009 11.080076,-0.85851 6.131126,-0.01 9.75,-0.40491 9.75,-1.06497 0,-1.81647 -2.715161,-6.36182 -5.168633,-8.65261 -12.07132,-11.27094 -31.8313664,-2.92907 -31.8313664,13.43789 0,8.11142 3.3493754,13.74327 10.4999994,17.65535 4.40658,2.41082 14.24021,1.73217 18.631415,-1.28582 z m 167.168255,1.27426 c 4.54494,-2.30147 6.64067,-4.34552 8.80675,-8.58957 4.6734,-9.15672 0.7524,-21.25932 -8.30872,-25.64573 -6.47194,-3.13301 -6.81227,-2.95686 -6.00058,3.10589 0.38659,2.8875 0.70289,7.725 0.70289,10.75 0,5.17106 -0.15464,5.51798 -2.5856,5.80056 -3.76159,0.43726 -4.67945,-1.33304 -5.99015,-11.55338 l -1.17581,-9.16845 -2.62422,1.36562 c -8.20697,4.27083 -12.31344,15.44001 -8.76423,23.83777 1.691,4.00105 6.1861,8.5748 10.14001,10.3174 4.15222,1.83001 11.96605,1.72116 15.79966,-0.22011 z"
       id="path845" />
  </g>
</svg>
